# AST/ASF file generated using VICON BodyLanguage
# -----------------------------------------------
:version 1.10
:name VICON
:units
  mass 1.0
  length 0.45
  angle deg
:documentation
   .ast/.asf automatically generated from VICON data using
   VICON BodyBuilder and BodyLanguage model FoxedUp or BRILLIANT.MOD
:root
   order TX TY TZ RX RY RZ
   axis XYZ
   position 0 0 0  
   orientation 0 0 0 
:bonedata
  begin
     id 1 
     name lhipjoint
     direction 0.573633 -0.743009 0.344793 
     length 2.46257 
     axis 0 0 0  XYZ
  end
  begin
     id 2 
     name lfemur
     direction 0.34202 -0.939693 0  
     length 7.3842  
     axis 0 0 20  XYZ
    dof rx ry rz
    limits (-160.0 20.0)
           (-70.0 70.0)
           (-60.0 70.0)
  end
  begin
     id 3 
     name ltibia
     direction 0.34202 -0.939693 0   
     length 7.50407   
     axis 0 0 20   XYZ
    dof rx
    limits (-10.0 170.0)
  end
  begin
     id 4 
     name lfoot
     direction 0.110749 -0.304281 0.946123   
     length 1.95925   
     axis -90 7.62852e-016 20   XYZ
    dof rx rz
    limits (-45.0 90.0)
           (-70.0 20.0)
  end
  begin
     id 5 
     name ltoes
     direction 1.53554e-011 -4.21843e-011 1   
     length 0.978318   
     axis -90 7.62852e-016 20   XYZ
    dof rx
    limits (-90.0 20.0)
  end
  begin
     id 6 
     name rhipjoint
     direction -0.488109 -0.791693 0.367385   
     length 2.31113  
     axis 0 0 0  XYZ 
  end
  begin
     id 7 
     name rfemur
     direction -0.34202 -0.939693 0   
     length 7.40965   
     axis 0 0 -20   XYZ
    dof rx ry rz
    limits (-160.0 20.0)
           (-70.0 70.0)
           (-70.0 60.0)
  end
  begin
     id 8 
     name rtibia
     direction -0.34202 -0.939693 0   
     length 7.55548   
     axis 0 0 -20   XYZ
    dof rx
    limits (-10.0 170.0)
 end
 begin
     id 9 
     name rfoot
     direction -0.127594 -0.350561 0.927808   
     length 2.07199  
     axis -90 -7.62852e-016 -20   XYZ
    dof rx rz
    limits (-45.0 90.0)
           (-20.0 70.0)
  end
  begin
     id 10 
     name rtoes
     direction -1.53542e-011 -4.21909e-011 1   
     length 1.02667   
     axis -90 -7.62852e-016 -20   XYZ
    dof rx
    limits (-90.0 20.0)
  end
  begin
     id 11 
     name lowerback
     direction -0.0103342 0.997298 -0.0727278   
     length 2.02836   
     axis 0 0 0   XYZ
    dof rx ry rz
    limits (-20.0 45.0)
           (-30.0 30.0)
           (-30.0 30.0)
  end
  begin
     id 12 
     name upperback
     direction 0.0171146 0.999786 -0.011606   
     length 2.03179   
     axis 0 0 0   XYZ
    dof rx ry rz
    limits (-20.0 45.0)
           (-30.0 30.0)
           (-30.0 30.0)
  end
  begin
     id 13 
     name thorax
     direction 0.0216927 0.999513 0.0224343   
     length 2.03882   
     axis 0 0 0   XYZ
    dof rx ry rz
    limits (-20.0 45.0)
           (-30.0 30.0)
           (-30.0 30.0)
  end
  begin
     id 14 
     name lowerneck
     direction 0.000989287 0.993907 0.110221   
     length 1.75428   
     axis 0 0 0   XYZ
    dof rx ry rz
    limits (-20.0 45.0)
           (-30.0 30.0)
           (-30.0 30.0)
  end
  begin
     id 15 
     name upperneck
     direction -0.0172474 0.994813 -0.100253   
     length 1.77058   
     axis 0 0 0   XYZ
    dof rx ry rz
    limits (-20.0 45.0)
           (-30.0 30.0)
           (-30.0 30.0)
  end
  begin
     id 16
     name head
     direction -0.00486455 0.99894 -0.0457663  
     length 1.77427  
     axis 0 0 0   XYZ
    dof rx ry rz
    limits (-20.0 45.0)
           (-30.0 30.0)
           (-30.0 30.0)
  end
  begin
     id 17 
     name lclavicle
     direction 0.927314 0.333734 -0.169441  
     length 3.97584  
     axis 0 0 0   XYZ
    dof ry rz
    limits (-20.0 10.0)
           (0.0 20.0)
  end
  begin
     id 18 
     name lhumerus
     direction 1 -4.48965e-011 -3.25313e-028   
     length 4.76468   
     axis 180 -30 -90   XYZ
    dof rx ry rz
    limits (-60.0 90.0)
           (-90.0 90.0)
           (-90.0 90.0)
  end
  begin
     id 19
     name lradius
     direction 1 -4.48969e-011 -2.8465e-028   
     length 3.52712   
     axis -180 -30 -90   XYZ
    dof rx
    limits (-10.0 170.0)
  end
  begin
     id 20
     name lwrist
     direction 1 -4.4896e-011 -7.78665e-028   
     length 1.76356   
     axis 1.91374e-015 90 90   XYZ
    dof ry
    limits (-180.0 0.0)
 end
  begin
     id 21 
     name lhand
     direction 1 -4.48959e-011 -1.55733e-027   
     length 0.859564   
     axis 9.9371e-016 90 90   XYZ
    dof rx rz
    limits (-90.0 90.0)
           (-45.0 45.0)
  end
  begin
     id 22 
     name lfingers
     direction 1 -4.48965e-011 -3.11466e-027   
     length 0.693002   
     axis 1.98742e-015 90 90   XYZ
    dof rx
    limits (0.0 90.0)
  end
  begin
     id 23
     name lthumb
     direction 0.707107 -6.34948e-011 0.707107   
     length 0.995017   
     axis -90 45 2.85299e-015   XYZ
    dof rx rz
    limits (-45.0 45.0)
           (-45.0 45.0)
  end
  begin
     id 24 
     name rclavicle
     direction -0.899388 0.348209 -0.264294   
     length 3.68366  
     axis 0 0 0   XYZ 
    dof ry rz
    limits (-10.0 20.0)
           (-20.0 0.0)
  end
  begin
     id 25 
     name rhumerus
     direction -1 -4.48965e-011 -3.01536e-027  
     length 4.90577   
     axis 180 30 90   XYZ
    dof rx ry rz
    limits (-90.0 60.0)
           (-90.0 90.0)
           (-90.0 90.0)
  end
  begin
     id 26 
     name rradius
     direction -1 -4.48966e-011 3.93291e-027   
     length 3.42692   
     axis -180 30 90   XYZ
    dof rx
    limits (-10.0 170.0)
  end
  begin
     id 27 
     name rwrist
     direction -1 -4.48969e-011 -7.78665e-028   
     length 1.71346   
     axis 1.91374e-015 -90 -90   XYZ
    dof ry
    limits (-180.0 0.0)
  end
  begin
     id 28
     name rhand
     direction -1 -4.48967e-011 -1.55733e-027   
     length 0.740957   
     axis 9.9371e-016 -90 -90   XYZ
    dof rx rz
    limits (-90.0 90.0)
           (-45.0 45.0)
  end
  begin
     id 29
     name rfingers
     direction -1 -4.48949e-011 -3.11466e-027   
     length 0.597378   
     axis 1.98742e-015 -90 -90   XYZ
    dof rx
    limits (0.0 90.0)
  end
  begin
     id 30
     name rthumb
     direction -0.707107 -6.34931e-011 0.707107   
     length 0.857719   
     axis -90 -45 -2.85299e-015   XYZ
    dof rx rz
    limits (-45.0 45.0)
           (-45.0 45.0)
  end
:hierarchy
  begin
    root lhipjoint rhipjoint lowerback
    lhipjoint lfemur
    lfemur ltibia
    ltibia lfoot
    lfoot ltoes
    rhipjoint rfemur
    rfemur rtibia
    rtibia rfoot
    rfoot rtoes
    lowerback upperback
    upperback thorax
    thorax lowerneck lclavicle rclavicle
    lowerneck upperneck
    upperneck head
    lclavicle lhumerus
    lhumerus lradius
    lradius lwrist
    lwrist lhand lthumb
    lhand lfingers
    rclavicle rhumerus
    rhumerus rradius
    rradius rwrist
    rwrist rhand rthumb
    rhand rfingers
  end

#!OML:ASF E:\I on waltz\AllaLogoMonkeySwing\Project 1\Capture day 1\Session 1\Subject1.ASF
:FULLY-SPECIFIED
:DEGREES
137
root 0.533707 17.8463 -3.81946 9.32474 -12.5496 -1.38522
lowerback 12.9129 -1.11659 -2.40184
upperback 1.6588 -1.72409 1.67136
thorax -5.36896 -0.786587 3.41457
lowerneck -10.8975 6.93775 4.74483
upperneck 13.6612 9.57434 -6.25539
head 6.47975 4.38843 -1.89005
rclavicle -1.23122e-014 -1.92821e-014
rhumerus -31.2344 -17.2634 -80.6951
rradius 32.6732
rwrist -2.27079
rhand -5.46793 -38.3115
rfingers 7.12502
rthumb 20.3438 -67.266
lclavicle -1.23122e-014 -1.92821e-014
lhumerus -35.3647 13.4609 83.5202
lradius 40.9156
lwrist 0.0536162
lhand -6.51007 -12.5386
lfingers 7.12502
lthumb 19.342 16.5195
rfemur -17.8471 4.05692 17.9959
rtibia 25.9339
rfoot -16.0333 -1.2733
rtoes 11.9211
lfemur -11.3097 10.7424 -19.9125
ltibia 20.9321
lfoot -16.0549 8.58081
ltoes -25.4111
138
root 0.5507 17.8037 -3.90269 10.0114 -12.7367 -1.57694
lowerback 13.9537 -1.14482 -2.44024
upperback 1.75874 -1.78339 1.70736
thorax -5.83207 -0.805734 3.51924
lowerneck -10.6841 7.29495 5.22695
upperneck 12.4145 10.028 -7.0024
head 6.13901 4.6034 -2.17542
rclavicle 7.90169e-015 -1.62506e-014
rhumerus -31.1365 -17.0794 -80.8858
rradius 33.1223
rwrist -2.62297
rhand -5.40561 -38.4131
rfingers 7.12502
rthumb 20.4037 -67.3612
lclavicle 7.90169e-015 -1.62506e-014
lhumerus -34.9425 12.3256 83.8067
lradius 42.304
lwrist 0.910351
lhand -6.38142 -12.5114
lfingers 7.12502
lthumb 19.4657 16.5342
rfemur -19.9394 3.79841 18.1974
rtibia 27.9257
rfoot -16.5991 -1.21658
rtoes 12.133
lfemur -13.6099 11.3679 -19.8722
ltibia 23.4079
lfoot -16.7954 8.31006
ltoes -25.3003
139
root 0.569232 17.7464 -3.98553 10.718 -12.8552 -1.6949
lowerback 14.9952 -1.16971 -2.50031
upperback 1.86418 -1.84428 1.71045
thorax -6.28795 -0.824963 3.60393
lowerneck -10.9436 7.684 5.31938
upperneck 11.6701 10.509 -7.17486
head 5.99358 4.83667 -2.19482
rclavicle -3.47873e-015 1.36167e-014
rhumerus -31.1237 -17.0423 -81.0404
rradius 33.7369
rwrist -2.8757
rhand -5.50579 -38.0032
rfingers 7.12502
rthumb 20.3074 -66.9615
lclavicle -3.47873e-015 1.36167e-014
lhumerus -34.5225 11.0966 84.0648
lradius 43.8274
lwrist 1.90696
lhand -6.2585 -12.5267
lfingers 7.12502
lthumb 19.5838 16.507
rfemur -22.2139 3.34796 18.3363
rtibia 30.1918
rfoot -17.2839 -1.08158
rtoes 12.1709
lfemur -16.0224 12.0348 -19.9838
ltibia 25.947
lfoot -17.6469 7.99847
ltoes -24.9177
140
root 0.586281 17.6738 -4.07103 11.3746 -12.8686 -1.71232
lowerback 16.1127 -1.17245 -2.61834
upperback 2.02002 -1.89016 1.69171
thorax -6.72945 -0.835912 3.69897
lowerneck -11.1252 8.07244 5.42986
upperneck 10.6526 10.9897 -7.49717
head 5.76071 5.06884 -2.27031
rclavicle 3.8763e-015 3.00165e-014
rhumerus -31.1364 -17.0316 -81.145
rradius 34.5428
rwrist -3.28548
rhand -5.65332 -37.7365
rfingers 7.12502
rthumb 20.1656 -66.7098
lclavicle 3.8763e-015 3.00165e-014
lhumerus -34.02 9.73305 84.3302
lradius 45.4516
lwrist 2.92135
lhand -6.24773 -12.5802
lfingers 7.12502
lthumb 19.5942 16.4523
rfemur -24.5336 2.77055 18.3958
rtibia 32.553
rfoot -17.994 -0.943994
rtoes 12.2898
lfemur -18.4921 12.581 -20.2256
ltibia 28.5968
lfoot -18.739 7.60593
ltoes -23.355
141
root 0.598297 17.5848 -4.1605 12.0409 -12.79 -1.68294
lowerback 17.2034 -1.15336 -2.79846
upperback 2.24429 -1.92076 1.67522
thorax -7.0782 -0.840339 3.82722
lowerneck -11.2601 8.4156 5.59931
upperneck 9.39473 11.4083 -8.03679
head 5.46094 5.26727 -2.43393
rclavicle -4.77083e-015 -1.07344e-014
rhumerus -31.1288 -17.1618 -81.2442
rradius 35.5451
rwrist -3.85849
rhand -6.04051 -37.7203
rfingers 7.12502
rthumb 19.7934 -66.7325
lclavicle -4.77083e-015 -1.07344e-014
lhumerus -33.4344 8.37112 84.5391
lradius 47.1768
lwrist 3.79609
lhand -6.34632 -12.9986
lfingers 7.12502
lthumb 19.4994 16.0436
rfemur -26.9073 2.17252 18.4394
rtibia 34.9429
rfoot -18.7557 -0.831508
rtoes 12.5446
lfemur -21.1266 13.0451 -20.5213
ltibia 31.4333
lfoot -19.8862 7.15035
ltoes -21.5193
142
root 0.605293 17.4769 -4.24925 12.7803 -12.6771 -1.65218
lowerback 18.1402 -1.12381 -3.01295
upperback 2.49677 -1.9453 1.64907
thorax -7.30794 -0.844134 3.95742
lowerneck -11.3726 8.76931 5.89812
upperneck 8.12185 11.8283 -8.71522
head 5.17471 5.46609 -2.66066
rclavicle -4.47266e-015 -1.5704e-014
rhumerus -31.1409 -17.3728 -81.4113
rradius 36.6885
rwrist -4.64877
rhand -6.40465 -38.0325
rfingers 7.12502
rthumb 19.4433 -67.0804
lclavicle -4.47266e-015 -1.5704e-014
lhumerus -32.8925 7.02244 84.6044
lradius 49.0374
lwrist 4.63054
lhand -6.56373 -13.6442
lfingers 7.12502
lthumb 19.2904 15.419
rfemur -29.376 1.62875 18.5161
rtibia 37.4122
rfoot -19.5651 -0.804858
rtoes 12.654
lfemur -23.9384 13.5596 -20.8627
ltibia 34.429
lfoot -21.0313 6.69733
ltoes -20.3121
143
root 0.610559 17.3525 -4.3364 13.7347 -12.5218 -1.8024
lowerback 18.8645 -1.10428 -3.03631
upperback 2.72838 -1.94072 1.64824
thorax -7.44956 -0.840726 3.99141
lowerneck -11.4468 9.16736 6.22371
upperneck 6.83037 12.2894 -9.35652
head 4.88486 5.69284 -2.87748
rclavicle 1.68967e-015 1.07344e-014
rhumerus -31.1041 -17.5821 -81.6182
rradius 37.7832
rwrist -5.58214
rhand -6.51984 -38.3679
rfingers 7.12502
rthumb 19.3326 -67.4269
lclavicle 1.68967e-015 1.07344e-014
lhumerus -32.421 5.74818 84.5254
lradius 51.0741
lwrist 5.75238
lhand -6.77428 -13.9258
lfingers 7.12502
lthumb 19.0879 15.1575
rfemur -32.1624 1.14307 18.8441
rtibia 40.1422
rfoot -20.385 -0.913145
rtoes 12.3675
lfemur -27.0157 14.0387 -21.0822
ltibia 37.5026
lfoot -22.1115 6.28121
ltoes -19.4792
144
root 0.617195 17.216 -4.42248 14.7733 -12.2553 -1.9992
lowerback 19.5605 -1.11456 -2.92888
upperback 2.928 -1.94605 1.66267
thorax -7.61131 -0.844222 3.96943
lowerneck -11.4353 9.55162 6.48069
upperneck 5.39462 12.7319 -10.0633
head 4.54237 5.91494 -3.11208
rclavicle 4.51241e-014 3.97569e-016
rhumerus -30.9487 -17.6797 -81.8301
rradius 38.7099
rwrist -6.37364
rhand -6.35559 -38.492
rfingers 7.12502
rthumb 19.4905 -67.5352
lclavicle 4.51241e-014 3.97569e-016
lhumerus -31.9303 4.84094 84.3411
lradius 53.0761
lwrist 7.0684
lhand -6.83268 -14.0793
lfingers 7.12502
lthumb 19.0317 15.0096
rfemur -35.1203 0.630219 19.2583
rtibia 42.9979
rfoot -21.2358 -1.15922
rtoes 11.6152
lfemur -30.2065 14.2432 -21.2894
ltibia 40.5356
lfoot -23.0421 6.0136
ltoes -19.3177
145
root 0.623312 17.0683 -4.50705 15.7565 -11.7902 -2.16698
lowerback 20.3702 -1.14782 -2.69617
upperback 3.07655 -1.9545 1.67937
thorax -7.89176 -0.848336 3.8853
lowerneck -11.2945 9.87434 6.64355
upperneck 3.86627 13.0976 -10.8322
head 4.15024 6.10627 -3.36724
rclavicle 4.33351e-014 -2.22639e-014
rhumerus -30.8704 -17.8626 -81.984
rradius 39.6577
rwrist -6.68835
rhand -6.10858 -38.7056
rfingers 7.12502
rthumb 19.728 -67.7245
lclavicle 4.33351e-014 -2.22639e-014
lhumerus -31.457 4.2409 84.102
lradius 54.9005
lwrist 8.39105
lhand -6.77887 -14.37
lfingers 7.12502
lthumb 19.0835 14.7138
rfemur -38.0017 0.0623735 19.6836
rtibia 45.8103
rfoot -22.0602 -1.48361
rtoes 10.9862
lfemur -33.3496 14.1449 -21.4975
ltibia 43.5653
lfoot -23.9883 5.8259
ltoes -18.8311
146
root 0.626383 16.9103 -4.58469 16.7407 -11.1392 -2.5225
lowerback 21.1482 -1.17683 -2.17924
upperback 3.20735 -1.88229 1.7662
thorax -8.18588 -0.820785 3.69254
lowerneck -11.1471 10.1264 6.68735
upperneck 2.46337 13.3739 -11.492
head 3.77795 6.26016 -3.57994
rclavicle 1.68967e-014 1.66979e-014
rhumerus -30.8564 -18.1308 -82.0592
rradius 40.6232
rwrist -6.59508
rhand -6.24089 -39.0488
rfingers 7.12502
rthumb 19.6008 -68.0807
lclavicle 1.68967e-014 1.66979e-014
lhumerus -31.0333 3.78442 83.8807
lradius 56.5419
lwrist 9.76799
lhand -6.96207 -14.8062
lfingers 7.12502
lthumb 18.9073 14.2949
rfemur -40.8194 -0.490002 20.4056
rtibia 48.643
rfoot -22.7722 -1.93044
rtoes 11.0484
lfemur -36.5028 13.9319 -21.4373
ltibia 46.7122
lfoot -24.9111 5.68177
ltoes -18.1982
